<?xml version="1.0" encoding="utf-8"?>
<!-- Generator: Adobe Illustrator 19.0.0, SVG Export Plug-In . SVG Version: 6.00 Build 0)  -->
<svg version="1.1" id="图层_1" xmlns="http://www.w3.org/2000/svg" xmlns:xlink="http://www.w3.org/1999/xlink" x="0px" y="0px"
	 viewBox="-49 141 512 512" style="enable-background:new -49 141 512 512;" xml:space="preserve">
<style type="text/css">
	.st0{fill:#BFC9CD;stroke:#FFFFFF;stroke-miterlimit:10;}
</style>
<g id="icomoon-ignore">
</g>
<path class="st0" d="M383.3,377.6C350.4,285.9,280.8,203.5,207,141C133.2,203.5,63.6,285.9,30.7,377.6
	C10.4,434.3,8.3,495.9,37,550.3C69.9,612.9,136.3,653,207,653s137.1-40.1,170-102.7C405.7,495.9,403.6,434.3,383.3,377.6
	L383.3,377.6z M320.4,520.5C298.5,562.1,254,589,207,589c-27.6,0-54.3-9.3-76.1-25.3c6.6,0.9,13.3,1.3,20.1,1.3
	c58.7,0,114.3-33.6,141.7-85.6c22.4-42.6,20.5-86.9,11.9-122.2c7.3,14.1,13.5,28.1,18.4,42C334.4,430.7,343.1,477.3,320.4,520.5
	L320.4,520.5z"/>
</svg>
