<?xml version="1.0" encoding="utf-8"?>
<!-- Generator: Adobe Illustrator 19.0.0, SVG Export Plug-In . SVG Version: 6.00 Build 0)  -->
<svg version="1.1" id="图层_1" xmlns="http://www.w3.org/2000/svg" xmlns:xlink="http://www.w3.org/1999/xlink" x="0px" y="0px"
	 viewBox="-49 141 512 512" style="enable-background:new -49 141 512 512;" xml:space="preserve">
<style type="text/css">
	.st0{fill:#0092A8;}
</style>
<g id="icomoon-ignore">
</g>
<path class="st0" d="M143,173h320v64H143V173z M143,365h320v64H143V365z M143,557h320v64H143V557z M-49,205c0-35.3,28.7-64,64-64
	s64,28.7,64,64s-28.7,64-64,64S-49,240.3-49,205z M-49,397c0-35.3,28.7-64,64-64s64,28.7,64,64s-28.7,64-64,64S-49,432.3-49,397z
	 M-49,589c0-35.3,28.7-64,64-64s64,28.7,64,64s-28.7,64-64,64S-49,624.3-49,589z"/>
</svg>
