<?xml version="1.0" encoding="utf-8"?>
<!-- Generator: Adobe Illustrator 19.0.0, SVG Export Plug-In . SVG Version: 6.00 Build 0)  -->
<svg version="1.1" id="图层_1" xmlns="http://www.w3.org/2000/svg" xmlns:xlink="http://www.w3.org/1999/xlink" x="0px" y="0px"
	 viewBox="-49 141 512 512" style="enable-background:new -49 141 512 512;" xml:space="preserve">
<style type="text/css">
	.st0{fill:#D6D8D8;}
</style>
<g id="icomoon-ignore">
</g>
<path class="st0" d="M447,333H271V157c0-8.8-7.2-16-16-16h-96c-8.8,0-16,7.2-16,16v176H-33c-8.8,0-16,7.2-16,16v96
	c0,8.8,7.2,16,16,16h176v176c0,8.8,7.2,16,16,16h96c8.8,0,16-7.2,16-16V461h176c8.8,0,16-7.2,16-16v-96C463,340.2,455.8,333,447,333
	z"/>
</svg>
