<?xml version="1.0" encoding="utf-8"?>
<!-- Generator: Adobe Illustrator 19.0.0, SVG Export Plug-In . SVG Version: 6.00 Build 0)  -->
<svg version="1.1" id="图层_1" xmlns="http://www.w3.org/2000/svg" xmlns:xlink="http://www.w3.org/1999/xlink" x="0px" y="0px"
	 viewBox="206 -116 1024 1024" style="enable-background:new 206 -116 1024 1024;" xml:space="preserve">
<style type="text/css">
	.st0{fill:#A6AEB2;}
</style>
<g id="icomoon-ignore">
</g>
<path class="st0" d="M590.1-116.1c-212.1,0-384,171.9-384,384s171.9,384,384,384c65,0,126.1-16.3,179.7-44.8l266.9,266.9l-0.1,0.1
	c20.5,20.9,49,33.9,80.5,33.9c62.4,0,112.9-50.6,112.9-112.9c0-31.6-13-60-33.9-80.5l0.2-0.2l-267-266.9
	c28.6-53.8,44.8-114.8,44.8-179.6C974.1,55.8,802.2-116.1,590.1-116.1L590.1-116.1z M1076.7,834l-258-258
	c30.4-22.6,57.2-49.5,79.8-79.9l258.1,258.1l-0.3,0.3c10.7,10.3,17.4,24.6,17.4,40.5c0,31.2-25.3,56.4-56.5,56.4
	C1101.2,851.5,1087,844.8,1076.7,834L1076.7,834z M270.1,267.9c0-176.7,143.3-320,320-320s320,143.3,320,320s-143.3,320-320,320
	S270.1,444.6,270.1,267.9z M814.1,267.9c0,8.8-7.2,16-16,16s-16-7.2-16-16c0-106-86-192-192-192c-8.8,0-16-7.2-16-16s7.2-16,16-16
	C713.8,43.9,814.1,144.1,814.1,267.9z"/>
</svg>
