<?xml version="1.0" encoding="utf-8"?>
<!-- Generator: Adobe Illustrator 19.0.0, SVG Export Plug-In . SVG Version: 6.00 Build 0)  -->
<svg version="1.1" id="图层_1" xmlns="http://www.w3.org/2000/svg" xmlns:xlink="http://www.w3.org/1999/xlink" x="0px" y="0px"
	 viewBox="206 -116 1024 1024" style="enable-background:new 206 -116 1024 1024;" xml:space="preserve">
<style type="text/css">
	.st0{fill:#0092A8;}
</style>
<g id="icomoon-ignore">
</g>
<path class="st0" d="M1178.5,289.8l-98-19.6c-4.9-14.2-10.8-27.9-17.2-41.2l55.6-83.3c16.9-25.4,13.6-59.2-8-80.7l-61.6-61.6
	c-12.4-12.4-28.7-18.8-45.3-18.8c-12.3,0-24.6,3.5-35.4,10.8l-83.3,55.5c-13.4-6.5-27.1-12.2-41.3-17.2l-19.6-98.1
	c-6-30-32.3-51.5-62.8-51.5h-87c-30.5,0-56.8,21.5-62.8,51.5L592,33.6c-14.2,4.9-27.9,10.7-41.2,17.2L467.5-4.8
	C456.7-12,444.3-15.5,432-15.5c-16.5,0-32.9,6.4-45.3,18.8l-61.5,61.6c-21.6,21.6-24.9,55.4-8,80.7l55.5,83.3
	c-6.5,13.3-12.2,27.1-17.2,41.3l-98.1,19.6c-29.9,6-51.5,32.3-51.5,62.8v87c0,30.5,21.5,56.8,51.5,62.8l98.1,19.7
	c4.9,14.2,10.7,27.9,17.2,41.2l-55.5,83.3c-16.9,25.4-13.6,59.2,8,80.7l61.6,61.6c12.4,12.4,28.7,18.8,45.3,18.8
	c12.3,0,24.7-3.6,35.5-10.8l83.3-55.6c13.3,6.5,27.1,12.3,41.3,17.2l19.6,98c6,30,32.3,51.5,62.8,51.5h87
	c30.5,0,56.8-21.6,62.8-51.5l19.7-98c14.2-4.9,27.9-10.8,41.2-17.2l83.3,55.6c10.8,7.2,23.2,10.8,35.4,10.8
	c16.6,0,32.9-6.4,45.3-18.8l61.6-61.6c21.6-21.6,24.9-55.4,8-80.7l-55.6-83.3c6.5-13.4,12.3-27.1,17.2-41.3l98-19.6
	c29.9-5.9,51.5-32.3,51.5-62.8v-87C1230,322,1208.4,295.7,1178.5,289.8L1178.5,289.8z M1067.9,459.2c-22.2,4.4-40.4,20.3-47.9,41.8
	c-4.1,11.8-8.9,23.3-14.3,34.4c-10,20.4-8.3,44.6,4.3,63.4l55.6,83.3l-61.6,61.6l-83.3-55.6c-10.7-7.1-23.1-10.8-35.5-10.8
	c-9.5,0-19.1,2.1-27.9,6.4c-11.1,5.4-22.6,10.2-34.4,14.4c-21.4,7.4-37.2,25.6-41.7,47.9l-19.7,98.1h-87L654.9,746
	c-4.4-22.2-20.3-40.4-41.7-47.9c-11.8-4.1-23.3-8.9-34.4-14.3c-8.8-4.3-18.4-6.4-27.9-6.4c-12.4,0-24.8,3.6-35.5,10.8L432,743.6
	l-61.6-61.6l55.5-83.3c12.6-18.9,14.2-43,4.4-63.4c-5.4-11.1-10.2-22.6-14.3-34.4c-7.4-21.4-25.7-37.2-47.9-41.7l-98.1-19.7
	l-0.1-87.1l98.1-19.6c22.2-4.4,40.4-20.3,47.9-41.7c4.1-11.8,8.9-23.3,14.3-34.4c9.9-20.4,8.3-44.5-4.4-63.4L370.4,110L432,48.5
	l83.3,55.5c10.7,7.1,23.1,10.8,35.5,10.8c9.5,0,19-2.1,27.9-6.4c11.1-5.4,22.6-10.2,34.4-14.3c21.4-7.4,37.3-25.7,41.7-47.9
	l19.6-98.1l87,0l19.6,98.1c4.4,22.2,20.3,40.4,41.8,47.9c11.8,4.1,23.3,8.9,34.4,14.3c8.9,4.3,18.4,6.4,27.9,6.4
	c12.4,0,24.8-3.6,35.5-10.8l83.3-55.5l61.6,61.6l-55.6,83.3c-12.6,18.9-14.2,43-4.4,63.4c5.4,11.1,10.2,22.6,14.4,34.4
	c7.4,21.4,25.6,37.3,47.9,41.7l98,19.6l0.1,87L1067.9,459.2z M718,172c-123.7,0-224,100.3-224,224c0,123.7,100.3,224,224,224
	s224-100.3,224-224S841.7,172,718,172L718,172z M718,592.1c-108.2,0-196-87.8-196-196c0-108.2,87.8-196,196-196
	c108.2,0,196,87.8,196,196C914,504.3,826.2,592.1,718,592.1z M718,268c-70.7,0-128,57.3-128,128c0,70.7,57.3,128,128,128
	c70.7,0,128-57.3,128-128S788.7,268,718,268L718,268z M718,492.1c-53,0-96-43-96-96s43-96,96-96s96,43,96,96S771,492.1,718,492.1z"
	/>
</svg>
