<?xml version="1.0" encoding="utf-8"?>
<!-- Generator: Adobe Illustrator 19.1.1, SVG Export Plug-In . SVG Version: 6.00 Build 0)  -->
<svg version="1.1" id="图层_1" xmlns="http://www.w3.org/2000/svg" xmlns:xlink="http://www.w3.org/1999/xlink" x="0px" y="0px"
	 viewBox="-113 141 384 512" style="enable-background:new -113 141 384 512;" xml:space="preserve">
<style type="text/css">
	.st0{fill:#DADADA;}
</style>
<g id="icomoon-ignore">
</g>
<path class="st0" d="M228.9,205H101.1c0,0-0.1,0-0.1-0.1v-15.4c0-8.6-6.6-16.1-15.3-16.5c-9.2-0.4-16.7,6.9-16.7,16v15.9
	c0,0,0,0.1-0.1,0.1H-58.9c-17.7,0-32.1,14.4-32.1,32.1V269c0,17.7,14.3,32,31.9,32c0,0,0.1,0,0.1,0.1v287.9
	c0,17.7,14.4,32.1,32.1,32.1h223.9c17.7,0,32.1-14.4,32.1-32.1V301.1c0,0,0-0.1,0.1-0.1c17.6,0,31.9-14.3,31.9-32v-31.9
	C261,219.4,246.6,205,228.9,205z M197,572.9c0,8.9-7.2,16.1-16.1,16.1H-10.9c-8.9,0-16.1-7.2-16.1-16.1V301.1c0,0,0-0.1,0.1-0.1H4.9
	c0,0,0.1,0,0.1,0.1l0,239.4c0,8.6,6.6,16.1,15.3,16.5c9.2,0.4,16.7-6.9,16.7-16l0.2-239.9c0,0,0-0.1,0.1-0.1h31.7c0,0,0.1,0,0.1,0.1
	v239.4c0,8.6,6.6,16.1,15.3,16.5c9.2,0.4,16.7-6.9,16.7-16l0.2-239.9c0,0,0-0.1,0.1-0.1h31.9c0,0,0.1,0,0.1,0.1L133,541
	c0,9.1,7.6,16.4,16.7,16c8.6-0.4,15.3-7.8,15.3-16.5V301.1c0,0,0-0.1,0.1-0.1h31.9c0,0,0.1,0,0.1,0.1V572.9z M229,260.9
	c0,4.4-3.6,8.1-8.1,8.1H-50.9c-4.4,0-8.1-3.6-8.1-8.1v-15.9c0-4.4,3.6-8.1,8.1-8.1h271.9c4.4,0,8.1,3.6,8.1,8.1V260.9z"/>
</svg>
